<mxfile host="app.diagrams.net" modified="2021-06-08T00:10:17.823Z" agent="5.0 (Windows)" etag="zh0CvRnYK1vtQskb6RxW" version="14.7.6" type="github">
  <diagram id="sAiz3fwd6c5k1yTrx6B4" name="Page-1">
    <mxGraphModel dx="1240" dy="683" grid="1" gridSize="10" guides="1" tooltips="1" connect="1" arrows="1" fold="1" page="1" pageScale="1" pageWidth="850" pageHeight="1100" math="0" shadow="0">
      <root>
        <mxCell id="0" />
        <mxCell id="1" parent="0" />
        <mxCell id="E4Xg9mnB9qlfMcUTHcWA-8" style="edgeStyle=orthogonalEdgeStyle;rounded=0;orthogonalLoop=1;jettySize=auto;html=1;entryX=0.5;entryY=0;entryDx=0;entryDy=0;" edge="1" parent="1" source="E4Xg9mnB9qlfMcUTHcWA-1" target="E4Xg9mnB9qlfMcUTHcWA-3">
          <mxGeometry relative="1" as="geometry" />
        </mxCell>
        <mxCell id="E4Xg9mnB9qlfMcUTHcWA-9" style="edgeStyle=orthogonalEdgeStyle;rounded=0;orthogonalLoop=1;jettySize=auto;html=1;entryX=0.5;entryY=0;entryDx=0;entryDy=0;" edge="1" parent="1" source="E4Xg9mnB9qlfMcUTHcWA-1" target="E4Xg9mnB9qlfMcUTHcWA-2">
          <mxGeometry relative="1" as="geometry" />
        </mxCell>
        <mxCell id="E4Xg9mnB9qlfMcUTHcWA-1" value="XAI" style="rounded=0;whiteSpace=wrap;html=1;" vertex="1" parent="1">
          <mxGeometry x="425" y="110" width="120" height="60" as="geometry" />
        </mxCell>
        <mxCell id="E4Xg9mnB9qlfMcUTHcWA-10" style="edgeStyle=orthogonalEdgeStyle;rounded=0;orthogonalLoop=1;jettySize=auto;html=1;exitX=0;exitY=0.5;exitDx=0;exitDy=0;entryX=0.5;entryY=0;entryDx=0;entryDy=0;" edge="1" parent="1" source="E4Xg9mnB9qlfMcUTHcWA-2" target="E4Xg9mnB9qlfMcUTHcWA-4">
          <mxGeometry relative="1" as="geometry" />
        </mxCell>
        <mxCell id="E4Xg9mnB9qlfMcUTHcWA-11" style="edgeStyle=orthogonalEdgeStyle;rounded=0;orthogonalLoop=1;jettySize=auto;html=1;exitX=1;exitY=0.5;exitDx=0;exitDy=0;entryX=0.5;entryY=0;entryDx=0;entryDy=0;" edge="1" parent="1" source="E4Xg9mnB9qlfMcUTHcWA-2" target="E4Xg9mnB9qlfMcUTHcWA-5">
          <mxGeometry relative="1" as="geometry" />
        </mxCell>
        <mxCell id="E4Xg9mnB9qlfMcUTHcWA-2" value="By the interpretation time" style="rhombus;whiteSpace=wrap;html=1;" vertex="1" parent="1">
          <mxGeometry x="270" y="190" width="80" height="80" as="geometry" />
        </mxCell>
        <mxCell id="E4Xg9mnB9qlfMcUTHcWA-12" style="edgeStyle=orthogonalEdgeStyle;rounded=0;orthogonalLoop=1;jettySize=auto;html=1;exitX=0;exitY=0.5;exitDx=0;exitDy=0;entryX=0.5;entryY=0;entryDx=0;entryDy=0;" edge="1" parent="1" source="E4Xg9mnB9qlfMcUTHcWA-3" target="E4Xg9mnB9qlfMcUTHcWA-7">
          <mxGeometry relative="1" as="geometry" />
        </mxCell>
        <mxCell id="E4Xg9mnB9qlfMcUTHcWA-13" style="edgeStyle=orthogonalEdgeStyle;rounded=0;orthogonalLoop=1;jettySize=auto;html=1;exitX=1;exitY=0.5;exitDx=0;exitDy=0;" edge="1" parent="1" source="E4Xg9mnB9qlfMcUTHcWA-3" target="E4Xg9mnB9qlfMcUTHcWA-6">
          <mxGeometry relative="1" as="geometry" />
        </mxCell>
        <mxCell id="E4Xg9mnB9qlfMcUTHcWA-3" value="By the scope" style="rhombus;whiteSpace=wrap;html=1;" vertex="1" parent="1">
          <mxGeometry x="610" y="190" width="80" height="80" as="geometry" />
        </mxCell>
        <mxCell id="E4Xg9mnB9qlfMcUTHcWA-4" value="Post - hoc" style="rounded=0;whiteSpace=wrap;html=1;" vertex="1" parent="1">
          <mxGeometry x="180" y="300" width="120" height="60" as="geometry" />
        </mxCell>
        <mxCell id="E4Xg9mnB9qlfMcUTHcWA-5" value="Intrinsic" style="rounded=0;whiteSpace=wrap;html=1;" vertex="1" parent="1">
          <mxGeometry x="320" y="300" width="120" height="60" as="geometry" />
        </mxCell>
        <mxCell id="E4Xg9mnB9qlfMcUTHcWA-6" value="Local" style="rounded=0;whiteSpace=wrap;html=1;" vertex="1" parent="1">
          <mxGeometry x="660" y="300" width="120" height="60" as="geometry" />
        </mxCell>
        <mxCell id="E4Xg9mnB9qlfMcUTHcWA-7" value="Global" style="rounded=0;whiteSpace=wrap;html=1;" vertex="1" parent="1">
          <mxGeometry x="520" y="300" width="120" height="60" as="geometry" />
        </mxCell>
      </root>
    </mxGraphModel>
  </diagram>
</mxfile>
